<?xml version="1.0" encoding="UTF-8"?>
<svg id="Capa_2" data-name="Capa 2" xmlns="http://www.w3.org/2000/svg" xmlns:xlink="http://www.w3.org/1999/xlink" viewBox="0 0 4692.59 1118.6">
  <defs>
    <style>
      .cls-1 {
        fill: none;
        stroke: #000;
        stroke-miterlimit: 10;
        stroke-width: 9.48px;
      }
    </style>
  </defs>
  <g id="Capa_1-2" data-name="Capa 1">
    <g>
      <g>
        <g>
          <path d="M526.53,40.44c15.59,15.61,23.81,34.36,24.66,56.28v343.87h82.21V43.6h156.82c49.74.85,88.31,19.82,115.72,56.91,27.39,37.11,41.1,86.43,41.1,147.97,0,74.2-24.88,127.32-74.62,159.35-12.65,9.29-28.26,16.66-46.79,22.13-16.69,4.94-32.46,8.43-47.44,10.62h170.79c10.83-8.92,21.16-19.17,30.95-30.86,41.3-49.32,61.97-108.33,61.97-177.06s-22.57-123.94-67.66-165.68c-45.12-41.73-104.77-62.6-178.96-62.6h-341.47v12.65h16.44c21.91,0,40.67,7.81,56.28,23.4Z"/>
          <path d="M1127.4,428.39l15.46,12.2h141.59l-105.2-83.02c-37.11-29.5-55.65-66.4-55.65-110.66s14.33-80.51,43-108.76c28.65-28.24,64.28-42.37,106.87-42.37s77.98,11.6,106.24,34.78c28.24,23.2,42.78,55.01,43.63,95.49h12.65l-2.53-155.56h-50.59c-39.64-8.42-76.32-12.65-110.03-12.65-67.46,0-121,21.3-160.62,63.87-39.64,42.59-59.44,94.66-59.44,156.19s24.86,111.73,74.62,150.5Z"/>
          <path d="M1398.55,1054.1c-1.7-.88-3.46-1.87-5.19-2.82,24.67-11.23,46.9-25.77,66.66-43.65,61.54-55.65,92.32-122.24,92.32-199.82,0-91.81-36.43-171.71-109.12-239.73h-138.76l50.58,39.91c38.77,30.35,66.81,63.67,84.1,99.91,17.27,36.26,25.93,69.99,25.93,101.17,0,5.91-.44,11.82-1.26,17.71-8.44,83.47-46.8,142.91-115.09,178.32-4.5,2.41-9.11,4.66-13.82,6.77-6.66-5.2-13.46-10.69-20.47-16.58-31.62-26.56-68.1-60.51-109.4-101.81-32.04-32.02-95.51-100.06-190.38-204.06,10.18-22.29,23.29-43.96,39.38-65l-11.38-8.85c-17.6,18.92-32.13,37.77-43.76,56.57-23.14-25.41-48-52.79-74.62-82.18-6.71-7.49-13.24-14.74-19.69-21.88h-108.02c31.92,35.42,74.02,82.08,126.44,140.13,14.86,16.46,28.84,31.96,42.11,46.69-5.6,21.42-8.46,39.33-8.46,53.55,0,20.67,1.26,37.74,3.79,51.22,16.01,89.38,63.65,152.6,142.91,189.71,42.15,20.23,90.21,30.35,144.18,30.35,19.44,0,37.98-1.23,55.71-3.55,12.55,6.37,25.52,12.32,39.01,17.77,24.03,9.68,46.58,16.22,67.66,19.6,21.07,3.36,45.31,5.06,72.72,5.06s58.81-4.64,94.22-13.91v-12.65c-10.12,1.68-20.24,2.53-30.35,2.53-48.91,0-98.23-13.5-147.97-40.47ZM1220.36,1034.19c-49.32,0-93.39-13.08-132.16-39.21-66.61-43.83-99.91-105.39-99.91-184.65,0-9.49.5-18.87,1.39-28.17,54.27,60.35,93.02,103.84,116.1,130.29,31.62,36.24,66.81,69.97,105.6,101.18,8.2,7.21,16.4,13.84,24.6,20.17-5.14.22-10.32.39-15.61.39Z"/>
          <path d="M714.34,877.04c-22.76,0-41.95-8-57.54-24.03-15.61-16.01-23.4-34.56-23.4-55.65v-229.29h-82.21v230.55c-.85,21.93-9.29,40.47-25.29,55.65-16.03,15.18-34.58,22.76-55.65,22.76h-16.44v12.65h276.97l-1.26-12.65h-15.18Z"/>
        </g>
        <path d="M44.74,518.34l2.39,8.05c-1.06.8-2.37,1.42-3.91,1.87-1.54.45-3.16.68-4.87.68-5.95,0-10.63-2.63-14.04-7.89l-8.21-12.6c-.85-1.33-1.73-2.26-2.63-2.79-.9-.53-1.89-.8-2.95-.8h-.4v23.37H0v-56.62h17.62c7.18,0,12.61,1.49,16.31,4.47,3.69,2.98,5.54,7.07,5.54,12.28,0,3.14-.69,5.84-2.07,8.09-1.38,2.26-3.27,4.06-5.66,5.38-2.39,1.33-5.1,2.18-8.13,2.55,1.59.85,3.06,2.29,4.39,4.31l4.47,6.62c1.17,1.7,2.27,2.87,3.31,3.51,1.04.64,2.35.96,3.95.96,1.86,0,3.53-.48,5.02-1.44ZM16.91,480.06h-6.78v16.67h6.3c4.36,0,7.58-.66,9.65-1.99,2.07-1.33,3.11-3.46,3.11-6.38,0-5.53-4.09-8.29-12.28-8.29Z"/>
        <path d="M147.13,480.54h-26.32v14.59h25.04v8.93h-25.04v15.23h27.27l-.72,8.93h-36.68v-56.62h36.44v8.93Z"/>
        <path d="M244.03,498.72h22.49v29.51h-8.21l-.88-6.06c-1.86,2.45-4.23,4.19-7.1,5.22-2.87,1.04-6.03,1.56-9.49,1.56-5.42,0-10.13-1.12-14.11-3.35-3.99-2.23-7.07-5.43-9.25-9.61-2.18-4.17-3.27-9.16-3.27-14.95s1.24-11.27,3.71-15.79c2.47-4.52,5.98-8.06,10.53-10.61,4.55-2.55,9.87-3.83,15.99-3.83,5,0,9.28.93,12.84,2.79,3.56,1.86,6.51,4.65,8.85,8.37l-7.97,5.82c-1.44-2.55-3.38-4.44-5.82-5.66-2.45-1.22-5.13-1.83-8.05-1.83-3.93,0-7.35.86-10.25,2.59-2.9,1.73-5.13,4.13-6.7,7.22-1.57,3.08-2.35,6.67-2.35,10.77,0,5.95,1.5,10.57,4.51,13.84,3,3.27,7.14,4.9,12.4,4.9,2.5,0,4.86-.45,7.1-1.36,2.23-.9,4.05-2.25,5.46-4.03,1.41-1.78,2.11-3.97,2.11-6.58v-.48h-12.52v-8.45Z"/>
        <path d="M373.53,480.54h-26.32v14.59h25.04v8.93h-25.04v15.23h27.27l-.72,8.93h-36.68v-56.62h36.44v8.93Z"/>
        <path d="M480.08,471.61h9.97v56.62h-9.09l-28.15-39.47v39.47h-9.97v-56.62h9.09l28.15,39.48v-39.48Z"/>
        <path d="M598.82,480.54h-26.32v14.59h25.04v8.93h-25.04v15.23h27.27l-.72,8.93h-36.68v-56.62h36.44v8.93Z"/>
        <path d="M712.86,518.34l2.39,8.05c-1.06.8-2.37,1.42-3.91,1.87-1.54.45-3.16.68-4.87.68-5.95,0-10.63-2.63-14.04-7.89l-8.21-12.6c-.85-1.33-1.73-2.26-2.63-2.79-.9-.53-1.89-.8-2.95-.8h-.4v23.37h-10.13v-56.62h17.62c7.18,0,12.61,1.49,16.31,4.47,3.69,2.98,5.54,7.07,5.54,12.28,0,3.14-.69,5.84-2.07,8.09-1.38,2.26-3.27,4.06-5.66,5.38-2.39,1.33-5.1,2.18-8.13,2.55,1.59.85,3.06,2.29,4.39,4.31l4.47,6.62c1.17,1.7,2.27,2.87,3.31,3.51,1.04.64,2.35.96,3.95.96,1.86,0,3.53-.48,5.02-1.44ZM685.03,480.06h-6.78v16.67h6.3c4.36,0,7.58-.66,9.65-1.99,2.07-1.33,3.11-3.46,3.11-6.38,0-5.53-4.09-8.29-12.28-8.29Z"/>
        <path d="M772.19,528.23l24.16-56.62h8.77l23.21,56.62h-10.53l-5.1-12.92h-24.72l-5.26,12.92h-10.53ZM791.56,506.61h17.78l-8.77-22.25-9.01,22.25Z"/>
        <path d="M935.42,471.61l-1.28,9.09h-17.54v47.53h-10.37v-47.53h-18.18v-9.09h47.37Z"/>
        <path d="M1000.82,528.23v-56.62h10.37v56.62h-10.37Z"/>
        <path d="M1119.5,471.61h10.37l-20.65,56.62h-14.44l-17.14-56.62h11l13.95,47.93,16.91-47.93Z"/>
        <path d="M1230.74,480.54h-26.32v14.59h25.04v8.93h-25.04v15.23h27.27l-.72,8.93h-36.68v-56.62h36.44v8.93Z"/>
        <path d="M1379.81,528.23l2.15-56.62h9.01l20.73,43.62,20.65-43.62h9.01l1.75,56.62h-9.97l-1.12-35.25-16.83,35.25h-7.82l-16.59-35.01-1.44,35.01h-9.57Z"/>
        <path d="M1551.73,480.54h-26.32v14.59h25.04v8.93h-25.04v15.23h27.27l-.72,8.93h-36.68v-56.62h36.44v8.93Z"/>
        <path d="M1621.04,528.23v-56.62h16.83c11,0,19.33,2.37,24.96,7.1,5.63,4.73,8.45,11.72,8.45,20.97,0,5.74-1.25,10.75-3.75,15.03-2.5,4.28-6.04,7.6-10.61,9.97-4.57,2.37-9.94,3.55-16.11,3.55h-19.78ZM1631.4,519.05h9.01c6.65,0,11.69-1.61,15.15-4.82,3.46-3.22,5.18-7.94,5.18-14.15s-1.77-11.32-5.3-14.51c-3.54-3.19-8.95-4.78-16.23-4.78h-7.82v38.28Z"/>
        <path d="M1758.99,528.94c-6.65,0-11.83-1.49-15.55-4.47-3.72-2.98-5.85-7.34-6.38-13.08l9.73-1.44c.96,6.81,5.18,10.21,12.68,10.21,3.24,0,5.77-.65,7.58-1.95,1.81-1.3,2.71-3.12,2.71-5.46,0-2.13-.9-3.73-2.71-4.82-1.81-1.09-4.71-2.11-8.69-3.07-3.72-.9-6.91-1.98-9.57-3.23-2.66-1.25-4.69-2.94-6.1-5.06-1.41-2.13-2.11-4.94-2.11-8.45s.86-6.33,2.59-8.93c1.73-2.6,4.11-4.65,7.14-6.14,3.03-1.49,6.54-2.23,10.53-2.23,5.26,0,9.57,1.38,12.92,4.15,3.35,2.76,5.32,6.57,5.9,11.4l-9.09,1.52c-1.12-5.53-4.52-8.29-10.21-8.29-2.76,0-5.01.72-6.74,2.15-1.73,1.44-2.59,3.32-2.59,5.66s.85,4.13,2.55,5.38c1.7,1.25,4.6,2.35,8.69,3.31,3.67.85,6.83,1.85,9.49,2.99,2.66,1.14,4.72,2.73,6.18,4.75,1.46,2.02,2.19,4.79,2.19,8.29,0,3.3-.89,6.21-2.67,8.73-1.78,2.53-4.25,4.51-7.42,5.94-3.16,1.44-6.85,2.15-11.05,2.15Z"/>
        <path d="M1858.91,528.23h-10.13v-56.62h19.94c7.34,0,12.95,1.49,16.83,4.47,3.88,2.98,5.82,7.28,5.82,12.92s-2.1,10.14-6.3,13.36c-4.2,3.22-10.31,4.82-18.34,4.82h-7.82v21.05ZM1868.32,480.06h-9.41v18.58h8.37c4.78,0,8.27-.77,10.45-2.31,2.18-1.54,3.27-3.93,3.27-7.18s-1.02-5.57-3.07-6.98c-2.05-1.41-5.25-2.11-9.61-2.11Z"/>
        <path d="M1952.62,528.23l24.16-56.62h8.77l23.2,56.62h-10.53l-5.1-12.92h-24.72l-5.26,12.92h-10.53ZM1972,506.61h17.78l-8.77-22.25-9.01,22.25Z"/>
      </g>
      <line class="cls-1" x1="2414.7" y1="142.77" x2="2414.7" y2="931.92"/>
      <image width="466" height="293" transform="translate(2986.54) scale(3.66)" xlink:href="../../../../MATERIAL/Treatment Logos/HALO Tribrid BW (1).png"/>
    </g>
  </g>
</svg>