<?xml version="1.0" encoding="UTF-8"?>
<svg id="Capa_2" data-name="Capa 2" xmlns="http://www.w3.org/2000/svg" viewBox="0 0 4081.3 771.14">
  <defs>
    <style>
      .cls-1 {
        fill: #e7bdb8;
      }
    </style>
  </defs>
  <g id="Capa_1-2" data-name="Capa 1">
    <g>
      <g>
        <path class="cls-1" d="M1200.67,277.36l5.81,19.55c-2.58,1.93-5.74,3.45-9.48,4.55-3.74,1.09-7.68,1.64-11.81,1.64-14.45,0-25.8-6.39-34.06-19.16l-19.93-30.58c-2.07-3.22-4.19-5.48-6.39-6.77-2.2-1.29-4.58-1.93-7.16-1.93h-.97v56.71h-24.58v-137.41h42.77c17.42,0,30.61,3.61,39.58,10.84,8.97,7.23,13.45,17.16,13.45,29.8,0,7.62-1.68,14.16-5.03,19.64-3.36,5.49-7.94,9.84-13.74,13.06-5.81,3.23-12.39,5.29-19.74,6.19,3.87,2.07,7.42,5.55,10.64,10.45l10.84,16.06c2.84,4.13,5.52,6.97,8.03,8.51,2.52,1.55,5.71,2.32,9.58,2.32,4.51,0,8.58-1.16,12.19-3.48ZM1133.13,184.46h-16.45v40.45h15.29c10.58,0,18.39-1.61,23.42-4.84,5.03-3.22,7.55-8.39,7.55-15.48,0-13.42-9.94-20.13-29.8-20.13Z"/>
        <path class="cls-1" d="M1449.18,185.62h-63.87v35.42h60.77v21.68h-60.77v36.96h66.19l-1.74,21.68h-89.03v-137.41h88.45v21.68Z"/>
        <path class="cls-1" d="M1684.32,229.74h54.58v71.61h-19.94l-2.13-14.71c-4.52,5.94-10.26,10.16-17.22,12.67-6.97,2.52-14.64,3.77-23.03,3.77-13.16,0-24.58-2.71-34.25-8.13-9.68-5.42-17.16-13.19-22.45-23.32-5.29-10.13-7.93-22.23-7.93-36.29s3-27.35,9-38.32c6-10.97,14.51-19.55,25.55-25.74,11.03-6.19,23.97-9.29,38.8-9.29,12.13,0,22.52,2.26,31.16,6.77,8.64,4.52,15.8,11.29,21.48,20.32l-19.35,14.13c-3.48-6.19-8.2-10.77-14.13-13.74-5.94-2.97-12.45-4.45-19.55-4.45-9.55,0-17.84,2.1-24.87,6.29-7.03,4.19-12.45,10.03-16.26,17.51-3.81,7.48-5.71,16.2-5.71,26.13,0,14.45,3.64,25.64,10.93,33.58,7.29,7.93,17.32,11.9,30.1,11.9,6.06,0,11.81-1.09,17.22-3.29,5.42-2.2,9.84-5.45,13.26-9.77,3.42-4.32,5.13-9.64,5.13-15.97v-1.16h-30.39v-20.51Z"/>
        <path class="cls-1" d="M1998.63,185.62h-63.87v35.42h60.77v21.68h-60.77v36.96h66.19l-1.74,21.68h-89.03v-137.41h88.45v21.68Z"/>
        <path class="cls-1" d="M2257.19,163.94h24.19v137.41h-22.06l-68.32-95.8v95.8h-24.19v-137.41h22.06l68.32,95.8v-95.8Z"/>
        <path class="cls-1" d="M2545.36,185.62h-63.87v35.42h60.77v21.68h-60.77v36.96h66.19l-1.74,21.68h-89.03v-137.41h88.45v21.68Z"/>
        <path class="cls-1" d="M2822.12,277.36l5.81,19.55c-2.58,1.93-5.74,3.45-9.48,4.55-3.74,1.09-7.68,1.64-11.81,1.64-14.45,0-25.8-6.39-34.06-19.16l-19.93-30.58c-2.07-3.22-4.19-5.48-6.39-6.77-2.2-1.29-4.58-1.93-7.16-1.93h-.97v56.71h-24.58v-137.41h42.77c17.42,0,30.61,3.61,39.58,10.84,8.97,7.23,13.45,17.16,13.45,29.8,0,7.62-1.68,14.16-5.03,19.64-3.36,5.49-7.94,9.84-13.74,13.06-5.81,3.23-12.39,5.29-19.74,6.19,3.87,2.07,7.42,5.55,10.64,10.45l10.84,16.06c2.84,4.13,5.52,6.97,8.03,8.51,2.52,1.55,5.71,2.32,9.58,2.32,4.51,0,8.58-1.16,12.19-3.48ZM2754.58,184.46h-16.45v40.45h15.29c10.58,0,18.39-1.61,23.42-4.84,5.03-3.22,7.55-8.39,7.55-15.48,0-13.42-9.94-20.13-29.8-20.13Z"/>
        <path class="cls-1" d="M2966.11,301.35l58.64-137.41h21.29l56.32,137.41h-25.55l-12.38-31.35h-60l-12.77,31.35h-25.55ZM3013.14,248.91h43.16l-21.29-54-21.87,54Z"/>
        <path class="cls-1" d="M3362.27,163.94l-3.1,22.06h-42.58v115.35h-25.16v-115.35h-44.13v-22.06h114.96Z"/>
        <path class="cls-1" d="M3520.98,301.35v-137.41h25.16v137.41h-25.16Z"/>
        <path class="cls-1" d="M3809,163.94h25.16l-50.13,137.41h-35.03l-41.61-137.41h26.71l33.87,116.32,41.03-116.32Z"/>
        <path class="cls-1" d="M4078.97,185.62h-63.86v35.42h60.77v21.68h-60.77v36.96h66.19l-1.74,21.68h-89.03v-137.41h88.44v21.68Z"/>
      </g>
      <path class="cls-1" d="M756.26,754.51c-33.85,0-67.99-9.34-102.41-28.01-1.18-.61-2.39-1.29-3.59-1.95,17.07-7.77,32.46-17.84,46.14-30.21,42.59-38.51,63.9-84.6,63.9-138.3s-19.47-105.3-58.33-148.42h0c-.07-.08-.15-.16-.23-.24-4.44-4.91-9.14-9.74-14.08-14.49-20.56-20.47-42.58-39.45-65.88-56.78l-61.36-45.63h0l-58.35-46.05c-25.68-20.42-38.51-45.95-38.51-76.59s9.92-55.72,29.76-75.28c19.83-19.54,44.49-29.32,73.96-29.32s53.97,8.03,73.53,24.07c19.54,16.06,29.61,38.08,30.2,66.09h8.75l-1.75-107.66h-35.01c-27.43-5.83-52.82-8.75-76.15-8.75-46.69,0-83.74,14.74-111.16,44.2-27.44,29.47-41.14,65.51-41.14,108.1s17.21,77.33,51.64,104.16l10.7,8.44h0l132.68,104.67,14.17,11.18c26.83,21.01,46.24,44.07,58.21,69.15,11.95,25.1,17.94,48.44,17.94,70.02,0,4.09-.3,8.18-.88,12.25-5.84,57.77-32.39,98.91-79.65,123.42-3.12,1.67-6.31,3.23-9.56,4.69-4.61-3.6-9.31-7.4-14.17-11.48-21.88-18.38-47.13-41.88-75.71-70.46-22.17-22.16-66.1-69.25-131.76-141.23,7.05-15.43,16.12-30.42,27.26-44.99l-7.88-6.13c-12.18,13.09-22.24,26.14-30.29,39.15-14.84-16.29-30.72-33.78-47.62-52.44l-60.58-71.97c25.85-3.04,53.96-15.07,81.76-43.02,0,0,.01-.02.02-.02,4.57-4.34,9-9.05,13.29-14.16,28.58-34.14,42.89-74.97,42.89-122.54s-15.62-85.78-46.83-114.66C328.96,14.44,287.67,0,236.33,0H0v8.75h11.38c15.17,0,28.15,5.4,38.95,16.19,10.79,10.8,16.48,23.78,17.07,38.95v485.79c-.59,15.18-6.43,28.01-17.51,38.51-11.09,10.5-23.93,15.76-38.51,15.76H0v8.75h191.69l-.88-8.75h-10.5c-15.76,0-29.04-5.54-39.83-16.63-10.8-11.08-16.19-23.92-16.19-38.51V27.13h108.54c34.42.59,61.12,13.72,80.09,39.39,18.96,25.68,28.45,59.82,28.45,102.41,0,51.35-17.22,88.12-51.64,110.29-8.75,6.43-19.56,11.53-32.39,15.32-5.86,1.74-11.56,3.21-17.11,4.44-4.56.33-9.28.65-14.11.93h-68.9l80.41,90.21h-.4c10.09,11.19,21.65,24.02,34.69,38.46h0c15.51,17.19,33.11,36.69,52.82,58.52,10.28,11.39,19.96,22.12,29.14,32.31-3.87,14.83-5.85,27.22-5.85,37.06,0,14.31.87,26.12,2.63,35.45,11.08,61.86,44.05,105.61,98.91,131.3,29.17,14,62.43,21.01,99.78,21.01,13.46,0,26.28-.85,38.56-2.46,8.69,4.41,17.67,8.53,27,12.3,16.63,6.7,32.24,11.23,46.83,13.57,14.58,2.32,31.36,3.5,50.33,3.5s40.7-3.21,65.21-9.63v-8.75c-7,1.16-14.01,1.75-21.01,1.75ZM530.53,712.72c-34.14,0-64.64-9.06-91.47-27.13-46.1-30.33-69.15-72.94-69.15-127.79,0-6.57.34-13.06.96-19.5,37.56,41.77,64.38,71.87,80.35,90.17,21.88,25.08,46.24,48.43,73.09,70.02,5.67,4.99,11.35,9.58,17.02,13.96-3.56.16-7.14.27-10.8.27Z"/>
      <g>
        <path class="cls-1" d="M1086.82,610.42l5.18-136.38h21.71l49.94,105.07,49.75-105.07h21.71l4.22,136.38h-24.01l-2.69-84.9-40.53,84.9h-18.82l-39.95-84.32-3.46,84.32h-23.05Z"/>
        <path class="cls-1" d="M1500.9,495.56h-63.38v35.15h60.31v21.51h-60.31v36.68h65.69l-1.73,21.51h-88.36v-136.38h87.78v21.51Z"/>
        <path class="cls-1" d="M1667.84,610.42v-136.38h40.53c26.51,0,46.55,5.7,60.12,17.1,13.57,11.4,20.36,28.24,20.36,50.52,0,13.83-3.01,25.9-9.03,36.21-6.02,10.31-14.54,18.31-25.55,24.01-11.01,5.7-23.94,8.55-38.8,8.55h-47.64ZM1692.81,588.33h21.71c16.01,0,28.17-3.87,36.49-11.62,8.32-7.75,12.48-19.11,12.48-34.09s-4.26-27.28-12.77-34.96c-8.52-7.68-21.55-11.53-39.09-11.53h-18.82v92.2Z"/>
        <path class="cls-1" d="M2000.12,612.15c-16.01,0-28.49-3.58-37.45-10.76-8.96-7.17-14.09-17.67-15.37-31.5l23.43-3.46c2.31,16.39,12.48,24.59,30.54,24.59,7.81,0,13.89-1.57,18.25-4.71,4.35-3.14,6.53-7.52,6.53-13.16,0-5.12-2.18-8.99-6.53-11.62-4.35-2.62-11.34-5.09-20.94-7.39-8.96-2.18-16.65-4.77-23.05-7.78-6.4-3.01-11.3-7.07-14.69-12.2-3.4-5.12-5.09-11.91-5.09-20.36s2.08-15.24,6.24-21.51c4.16-6.27,9.89-11.2,17.19-14.79,7.3-3.58,15.75-5.38,25.35-5.38,12.68,0,23.05,3.33,31.12,9.99,8.07,6.66,12.8,15.82,14.21,27.47l-21.9,3.65c-2.69-13.32-10.88-19.98-24.59-19.98-6.66,0-12.07,1.73-16.23,5.18-4.16,3.46-6.24,8.01-6.24,13.64s2.05,9.96,6.15,12.97c4.1,3.01,11.07,5.67,20.93,7.97,8.84,2.05,16.45,4.45,22.86,7.2,6.4,2.76,11.36,6.56,14.89,11.43,3.52,4.87,5.28,11.53,5.28,19.98,0,7.94-2.15,14.95-6.44,21.03-4.29,6.08-10.25,10.85-17.86,14.31-7.62,3.46-16.49,5.18-26.6,5.18Z"/>
        <path class="cls-1" d="M2240.79,610.42h-24.4v-136.38h48.02c17.67,0,31.18,3.59,40.53,10.76,9.34,7.17,14.02,17.54,14.02,31.11s-5.06,24.43-15.18,32.18c-10.12,7.75-24.84,11.62-44.18,11.62h-18.82v50.71ZM2263.45,494.41h-22.66v44.75h20.17c11.52,0,19.91-1.85,25.16-5.57,5.25-3.71,7.87-9.48,7.87-17.29s-2.47-13.41-7.39-16.81c-4.93-3.39-12.65-5.09-23.15-5.09Z"/>
        <path class="cls-1" d="M2466.49,610.42l58.2-136.38h21.13l55.89,136.38h-25.35l-12.29-31.12h-59.54l-12.68,31.12h-25.35ZM2513.16,558.37h42.83l-21.13-53.59-21.71,53.59Z"/>
      </g>
    </g>
  </g>
</svg>